<svg width="44" height="44" viewBox="0 0 44 44" fill="none" xmlns="http://www.w3.org/2000/svg">
<path d="M0 22C0 9.84974 9.84974 0 22 0C34.1503 0 44 9.84974 44 22C44 34.1503 34.1503 44 22 44C9.84974 44 0 34.1503 0 22Z" fill="#394C60" fill-opacity="0.15"/>
<path d="M23.0607 22.0001L28.1871 27.1265C28.4799 27.4194 28.4799 27.8943 28.1871 28.1872C27.8942 28.4801 27.4193 28.4801 27.1264 28.1872L22 23.0608L16.8736 28.1872C16.5807 28.4801 16.1058 28.4801 15.8129 28.1872C15.5201 27.8943 15.5201 27.4194 15.8129 27.1265L20.9393 22.0001L15.8127 16.8735C15.5198 16.5806 15.5198 16.1057 15.8127 15.8128C16.1056 15.5199 16.5805 15.5199 16.8733 15.8128L22 20.9395L27.1267 15.8128C27.4195 15.5199 27.8944 15.5199 28.1873 15.8128C28.4802 16.1057 28.4802 16.5806 28.1873 16.8735L23.0607 22.0001Z" fill="white"/>
</svg>
