<?xml version="1.0" encoding="UTF-8" standalone="no"?>
<!DOCTYPE svg PUBLIC "-//W3C//DTD SVG 1.1//EN" "http://www.w3.org/Graphics/SVG/1.1/DTD/svg11.dtd">
<svg width="100%" height="100%" viewBox="0 0 232 200" version="1.1" xmlns="http://www.w3.org/2000/svg" xmlns:xlink="http://www.w3.org/1999/xlink" xml:space="preserve" xmlns:serif="http://www.serif.com/" style="fill-rule:evenodd;clip-rule:evenodd;stroke-linejoin:round;stroke-miterlimit:2;">
    <g transform="matrix(1,0,0,1,-541.368,-215.966)">
        <g>
            <g transform="matrix(1,0,0,1,770.157,376.388)">
                <path d="M0,-125.481C-0.33,-145.055 -16.873,-160.426 -36.418,-159.322L-195,-150.36C-215.296,-149.213 -230.199,-130.845 -227.14,-110.748L-213.196,-19.165C-210.227,0.335 -191.534,13.374 -172.208,9.425L-140.506,2.946C-139.05,15.121 -131.474,33.432 -99.321,34.945C-99.321,34.945 -106.27,12.96 -99.344,-5.466L-26.375,-20.377C-10.112,-23.701 1.474,-38.142 1.194,-54.739L0,-125.481Z" style="fill:rgb(251,251,251);fill-rule:nonzero;"/>
            </g>
            <g transform="matrix(1,0,0,1,770.507,380.038)">
                <path d="M0,-129.137L0.279,-117.077C0.386,-113.057 0.436,-109.037 0.59,-105.018L0.991,-92.96C1.109,-88.94 1.3,-84.922 1.462,-80.903L1.981,-68.848L2.266,-62.82L2.408,-59.806L2.474,-58.294L2.478,-56.714C2.478,-52.5 1.729,-48.261 0.259,-44.263C-1.208,-40.263 -3.391,-36.507 -6.168,-33.223C-8.942,-29.936 -12.31,-27.123 -16.086,-24.969C-17.981,-23.901 -19.942,-23.01 -22.12,-22.262L-22.92,-21.973C-23.181,-21.884 -23.41,-21.833 -23.657,-21.762L-25.838,-21.162L-25.929,-21.137L-26.15,-21.083L-26.334,-21.041L-26.701,-20.958L-28.172,-20.623C-32.093,-19.726 -36.014,-18.83 -39.945,-17.983L-51.73,-15.403C-59.586,-13.683 -67.464,-12.067 -75.33,-10.394C-83.202,-8.748 -91.062,-7.046 -98.943,-5.445L-96.187,-7.797L-96.913,-5.572C-97.03,-5.199 -97.172,-4.836 -97.268,-4.455L-97.543,-3.305C-97.714,-2.536 -97.938,-1.782 -98.072,-1L-98.46,1.353C-98.617,2.13 -98.639,2.941 -98.736,3.733C-98.816,4.53 -98.912,5.324 -98.926,6.133L-99.027,8.549L-99.009,10.979C-99.023,11.788 -98.945,12.602 -98.913,13.413C-98.88,14.226 -98.827,15.038 -98.741,15.85C-98.659,16.662 -98.61,17.476 -98.492,18.286C-98.383,19.096 -98.295,19.909 -98.17,20.717C-97.933,22.335 -97.661,23.951 -97.328,25.55C-97.167,26.351 -96.99,27.146 -96.799,27.933C-96.615,28.705 -96.397,29.534 -96.204,30.199L-96.138,30.429C-95.595,32.301 -96.673,34.259 -98.545,34.802C-98.975,34.926 -99.422,34.964 -99.842,34.927L-103.584,34.593C-104.83,34.485 -106.076,34.387 -107.322,34.141L-111.055,33.511C-112.295,33.241 -113.527,32.895 -114.761,32.587C-115.376,32.416 -115.999,32.298 -116.606,32.081L-118.425,31.436C-119.636,30.999 -120.859,30.612 -122.022,30.012L-123.784,29.182C-124.375,28.914 -124.959,28.631 -125.513,28.273C-126.624,27.576 -127.787,26.974 -128.845,26.188L-130.423,24.995C-130.944,24.59 -131.489,24.22 -131.956,23.745L-133.405,22.385L-134.126,21.702C-134.356,21.465 -134.564,21.205 -134.784,20.957C-135.642,19.946 -136.558,18.98 -137.276,17.861L-138.411,16.231C-138.752,15.665 -139.068,15.085 -139.396,14.511C-140.087,13.38 -140.586,12.162 -141.132,10.967C-141.424,10.375 -141.604,9.745 -141.836,9.133C-142.045,8.514 -142.3,7.907 -142.468,7.278C-142.813,6.024 -143.186,4.774 -143.411,3.499C-143.701,2.234 -143.845,0.952 -144.03,-0.324L-140.216,2.428L-167.991,7.803L-171.467,8.455C-172.636,8.67 -173.967,8.816 -175.207,8.992C-175.835,9.101 -176.474,9.102 -177.11,9.123L-179.019,9.18C-179.655,9.223 -180.29,9.167 -180.924,9.118L-182.826,8.978C-187.886,8.459 -192.798,6.83 -197.174,4.33C-201.553,1.83 -205.4,-1.563 -208.384,-5.586C-211.385,-9.624 -213.497,-14.166 -214.668,-19.139L-215.328,-22.708L-215.799,-26.213L-216.74,-33.224L-218.622,-47.245C-219.939,-56.583 -221.225,-65.926 -222.637,-75.249L-224.724,-89.239L-226.917,-103.213L-228.02,-110.198L-228.599,-113.687C-228.787,-114.854 -228.885,-116.098 -229.029,-117.303C-229.421,-122.175 -228.754,-127.124 -227.187,-131.78C-224.07,-141.11 -216.914,-149.101 -207.76,-153.19C-205.476,-154.21 -203.123,-155.023 -200.557,-155.569C-199.253,-155.931 -198.143,-155.998 -196.961,-156.175L-196.085,-156.293L-195.646,-156.352L-195.079,-156.399L-193.316,-156.541L-179.211,-157.632C-169.808,-158.375 -160.397,-158.975 -150.989,-159.622L-136.869,-160.454L-129.809,-160.867L-122.745,-161.211L-108.616,-161.894L-94.479,-162.437C-89.768,-162.635 -85.052,-162.75 -80.338,-162.9L-66.194,-163.301L-37.902,-164.054C-35.537,-164.094 -33.05,-164.101 -30.666,-163.719C-29.455,-163.623 -28.284,-163.286 -27.103,-163.029C-25.911,-162.81 -24.785,-162.35 -23.639,-161.977C-19.104,-160.342 -14.899,-157.831 -11.39,-154.564C-10.494,-153.771 -9.722,-152.847 -8.885,-151.995C-8.094,-151.101 -7.402,-150.12 -6.658,-149.188C-5.974,-148.211 -5.354,-147.189 -4.7,-146.191C-4.135,-145.141 -3.606,-144.07 -3.059,-143.011L-1.763,-139.676C-1.448,-138.526 -1.113,-137.381 -0.817,-136.227L-0.227,-132.684L-0.001,-129.155L0,-129.137ZM-0.699,-129.107L-0.958,-132.634L-1.562,-136.061L-2.516,-139.423L-3.811,-142.668C-4.356,-143.697 -4.881,-144.737 -5.44,-145.757C-6.09,-146.722 -6.698,-147.717 -7.379,-148.659C-8.134,-149.545 -8.834,-150.477 -9.63,-151.322C-10.471,-152.123 -11.243,-152.996 -12.136,-153.737C-15.637,-156.775 -19.74,-159.118 -24.146,-160.464C-25.258,-160.764 -26.344,-161.153 -27.489,-161.302C-28.622,-161.49 -29.74,-161.759 -30.891,-161.79C-32.035,-161.858 -33.172,-162.015 -34.318,-161.926C-35.469,-161.878 -36.581,-161.893 -37.773,-161.769L-65.969,-159.329L-80.069,-158.134C-84.77,-157.752 -89.469,-157.335 -94.172,-157.002L-108.28,-155.948L-122.396,-155.035L-129.453,-154.581L-136.515,-154.196L-150.639,-153.432C-160.06,-153.015 -169.479,-152.551 -178.906,-152.229L-193.044,-151.725L-194.812,-151.667L-195.033,-151.659L-195.143,-151.656C-195.293,-151.645 -195.063,-151.667 -195.127,-151.661L-195.568,-151.622L-196.449,-151.546C-197.604,-151.429 -198.863,-151.394 -199.842,-151.134C-201.907,-150.791 -204.072,-150.172 -206.122,-149.355C-214.368,-146.105 -221.195,-139.22 -224.433,-130.782C-226.081,-126.577 -226.755,-122 -226.534,-117.466C-226.424,-116.327 -226.375,-115.215 -226.219,-114.049L-225.733,-110.547L-224.708,-103.549L-222.642,-89.556L-220.472,-75.579C-219.045,-66.257 -217.492,-56.955 -215.97,-47.649L-213.595,-33.703L-212.407,-26.73L-211.813,-23.243L-211.063,-19.883C-209.923,-15.712 -207.824,-11.597 -205.042,-8.182C-202.263,-4.735 -198.759,-1.902 -194.862,0.116C-190.967,2.146 -186.675,3.329 -182.344,3.65L-180.716,3.716C-180.174,3.742 -179.632,3.778 -179.09,3.718L-177.466,3.615C-176.925,3.581 -176.383,3.57 -175.85,3.453C-174.763,3.253 -173.749,3.127 -172.606,2.881L-169.153,2.118L-141.496,-3.836C-139.789,-4.204 -138.107,-3.118 -137.739,-1.41L-137.713,-1.274L-137.681,-1.083C-137.5,0.006 -137.367,1.105 -137.1,2.17C-136.897,3.254 -136.559,4.293 -136.258,5.343C-136.113,5.87 -135.887,6.364 -135.707,6.877C-135.505,7.38 -135.356,7.907 -135.103,8.385C-134.633,9.355 -134.22,10.358 -133.637,11.26L-132.821,12.646L-131.879,13.944C-131.297,14.845 -130.531,15.598 -129.836,16.406C-129.656,16.603 -129.489,16.812 -129.3,17.001L-128.705,17.539L-127.52,18.62C-127.146,19.002 -126.685,19.291 -126.256,19.614L-124.957,20.568C-124.088,21.202 -123.097,21.677 -122.179,22.245C-121.724,22.539 -121.226,22.766 -120.721,22.982L-119.224,23.658C-118.252,24.155 -117.178,24.464 -116.132,24.825L-114.56,25.36C-114.038,25.542 -113.476,25.633 -112.937,25.775C-111.844,26.026 -110.766,26.317 -109.665,26.541L-106.308,27.05C-105.199,27.258 -104.056,27.327 -102.916,27.406L-99.501,27.663L-103.138,32.391C-103.439,31.419 -103.664,30.595 -103.892,29.707C-104.118,28.836 -104.326,27.964 -104.515,27.091C-104.906,25.346 -105.23,23.592 -105.515,21.83C-105.668,20.951 -105.757,20.061 -105.879,19.177C-106.008,18.294 -106.067,17.399 -106.157,16.51C-106.253,15.621 -106.313,14.727 -106.352,13.83C-106.39,12.933 -106.473,12.041 -106.463,11.139L-106.487,8.438L-106.38,5.727C-106.362,4.824 -106.26,3.918 -106.171,3.013C-106.064,2.108 -106.033,1.202 -105.86,0.298L-105.416,-2.412C-105.261,-3.315 -105.008,-4.209 -104.806,-5.108L-104.483,-6.453C-104.369,-6.9 -104.205,-7.339 -104.068,-7.783L-103.201,-10.434C-102.8,-11.658 -101.783,-12.509 -100.606,-12.754L-100.444,-12.786C-92.566,-14.406 -84.669,-15.924 -76.782,-17.498C-68.89,-19.046 -61.01,-20.651 -53.108,-22.15L-41.256,-24.401C-37.308,-25.164 -33.35,-25.878 -29.392,-26.592L-27.908,-26.86L-27.297,-26.972L-26.562,-27.14L-25.091,-27.474C-24.852,-27.532 -24.587,-27.58 -24.369,-27.646L-23.745,-27.852C-22.099,-28.342 -20.346,-29.032 -18.7,-29.862C-15.384,-31.494 -12.34,-33.728 -9.758,-36.435C-4.571,-41.835 -1.323,-49.168 -0.879,-56.815L-0.793,-58.25L-0.767,-59.753L-0.727,-62.77L-0.646,-68.803L-0.534,-80.87C-0.507,-84.892 -0.452,-88.914 -0.47,-92.935L-0.476,-105C-0.458,-109.022 -0.543,-113.042 -0.572,-117.063L-0.7,-129.125L-0.699,-129.107Z" style="fill-rule:nonzero;fill:orange;"/>
            </g>
        </g>
    </g>
</svg>
