<svg width="37" height="36" viewBox="0 0 37 36" fill="none" xmlns="http://www.w3.org/2000/svg">
<path d="M4.8335 6C4.00507 6 3.3335 6.67157 3.3335 7.5V13.5C3.3335 14.3284 4.00507 15 4.8335 15C5.66192 15 6.3335 14.3284 6.3335 13.5V9H10.8335C11.6619 9 12.3335 8.32843 12.3335 7.5C12.3335 6.67157 11.6619 6 10.8335 6H4.8335Z" fill="white"/>
<path d="M31.8335 6C32.6619 6 33.3335 6.67157 33.3335 7.5V13.5C33.3335 14.3284 32.6619 15 31.8335 15C31.0051 15 30.3335 14.3284 30.3335 13.5V9H25.8335C25.0051 9 24.3335 8.32843 24.3335 7.5C24.3335 6.67157 25.0051 6 25.8335 6H31.8335Z" fill="white"/>
<path d="M10.8335 27H6.3335L6.3335 22.5C6.3335 21.6716 5.66192 21 4.8335 21C4.00507 21 3.3335 21.6716 3.3335 22.5V28.5C3.3335 29.3284 4.00507 30 4.8335 30H10.8335C11.6619 30 12.3335 29.3284 12.3335 28.5C12.3335 27.6716 11.6619 27 10.8335 27Z" fill="white"/>
<path d="M33.3335 28.5C33.3335 29.3284 32.6619 30 31.8335 30H25.8335C25.0051 30 24.3335 29.3284 24.3335 28.5C24.3335 27.6716 25.0051 27 25.8335 27H30.3335V22.5C30.3335 21.6716 31.0051 21 31.8335 21C32.6619 21 33.3335 21.6716 33.3335 22.5V28.5Z" fill="white"/>
<path fill-rule="evenodd" clip-rule="evenodd" d="M9.3335 13.5C9.3335 12.6716 10.0051 12 10.8335 12H25.8335C26.6619 12 27.3335 12.6716 27.3335 13.5V22.5C27.3335 23.3284 26.6619 24 25.8335 24H10.8335C10.0051 24 9.3335 23.3284 9.3335 22.5V13.5ZM12.3335 21V15H24.3335V21H12.3335Z" fill="white"/>
</svg>
