<svg viewBox="0 0 24 24" fill="none" xmlns="http://www.w3.org/2000/svg">
<path fill-rule="evenodd" clip-rule="evenodd" d="M5.33331 12C5.33331 15.6819 8.31808 18.6667 12 18.6667C15.6819 18.6667 18.6666 15.6819 18.6666 12C18.6666 8.31811 15.6819 5.33334 12 5.33334C8.31808 5.33334 5.33331 8.31811 5.33331 12ZM17.6666 12C17.6666 15.1296 15.1296 17.6667 12 17.6667C8.87037 17.6667 6.33331 15.1296 6.33331 12C6.33331 8.8704 8.87037 6.33334 12 6.33334C15.1296 6.33334 17.6666 8.8704 17.6666 12ZM11.3333 11.6667C11.3333 11.2985 11.6318 11 12 11C12.3682 11 12.6666 11.2985 12.6666 11.6667V14.6667C12.6666 15.0349 12.3682 15.3333 12 15.3333C11.6318 15.3333 11.3333 15.0349 11.3333 14.6667V11.6667ZM12.8333 9.33334C12.8333 9.79358 12.4602 10.1667 12 10.1667C11.5397 10.1667 11.1666 9.79358 11.1666 9.33334C11.1666 8.87311 11.5397 8.50001 12 8.50001C12.4602 8.50001 12.8333 8.87311 12.8333 9.33334Z" fill="#ffffff"/>
</svg>
