<svg width="32" height="32" viewBox="0 0 32 32" fill="none" xmlns="http://www.w3.org/2000/svg">
<path d="M0 16C0 7.16344 7.16344 0 16 0C24.8366 0 32 7.16344 32 16C32 24.8366 24.8366 32 16 32C7.16344 32 0 24.8366 0 16Z" fill="#ffffff33"/>
<path d="M23.2351 13.8295L18.894 18.1705M18.894 13.8295L23.2351 18.1705M14.2884 10.4765L11.998 12.7669C11.8729 12.892 11.8103 12.9546 11.7373 12.9993C11.6725 13.039 11.602 13.0682 11.5281 13.086C11.4449 13.106 11.3564 13.106 11.1794 13.106H9.92251C9.51731 13.106 9.3147 13.106 9.15994 13.1848C9.0238 13.2542 8.91312 13.3649 8.84375 13.501C8.76489 13.6558 8.76489 13.8584 8.76489 14.2636V17.7364C8.76489 18.1416 8.76489 18.3442 8.84375 18.499C8.91312 18.6351 9.0238 18.7458 9.15994 18.8152C9.3147 18.894 9.51731 18.894 9.92251 18.894H11.1794C11.3564 18.894 11.4449 18.894 11.5281 18.914C11.602 18.9318 11.6725 18.961 11.7373 19.0007C11.8103 19.0454 11.8729 19.108 11.998 19.2331L14.2884 21.5235C14.5983 21.8334 14.7533 21.9884 14.8864 21.9989C15.0018 22.008 15.1146 21.9612 15.1898 21.8732C15.2765 21.7717 15.2765 21.5525 15.2765 21.1142V10.8858C15.2765 10.4475 15.2765 10.2283 15.1898 10.1268C15.1146 10.0388 15.0018 9.99203 14.8864 10.0011C14.7533 10.0116 14.5983 10.1666 14.2884 10.4765Z" stroke="#ffffff" stroke-width="1.5" stroke-linecap="round" stroke-linejoin="round"/>
</svg>
