<svg width="24" height="24" viewBox="0 0 24 24" fill="none" xmlns="http://www.w3.org/2000/svg">
<path d="M18 12C18 15.3137 15.3137 18 12 18C11.2019 18 10.4402 17.8442 9.74366 17.5613C9.61035 17.5072 9.54369 17.4801 9.48981 17.468C9.43711 17.4562 9.3981 17.4519 9.34409 17.4519C9.28887 17.4519 9.22872 17.4619 9.10843 17.4819L6.73651 17.8772C6.48812 17.9186 6.36393 17.9393 6.27412 17.9008C6.19552 17.8671 6.13289 17.8045 6.09917 17.7259C6.06065 17.6361 6.08135 17.5119 6.12275 17.2635L6.51807 14.8916C6.53812 14.7713 6.54814 14.7111 6.54814 14.6559C6.54813 14.6019 6.54381 14.5629 6.532 14.5102C6.51992 14.4563 6.49285 14.3897 6.43871 14.2563C6.15582 13.5598 6 12.7981 6 12C6 8.68629 8.68629 6 12 6C15.3137 6 18 8.68629 18 12Z" stroke="white" stroke-width="1.5" stroke-linecap="round" stroke-linejoin="round"/>
</svg>
