<svg width="24" height="24" viewBox="0 0 24 24" fill="none" xmlns="http://www.w3.org/2000/svg">
<path d="M11.1673 12.0006H7.68178M7.62813 12.2047L6.1484 17.0888C6.03215 17.4725 5.97403 17.6643 6.01574 17.7825C6.05197 17.8851 6.12977 17.9628 6.22577 17.9924C6.33631 18.0265 6.50328 17.9435 6.83722 17.7775L17.4279 12.5114C17.7538 12.3494 17.9168 12.2683 17.9672 12.1558C18.0109 12.058 18.0109 11.9432 17.9672 11.8454C17.9168 11.7328 17.7538 11.6518 17.4279 11.4897L6.83352 6.22188C6.50059 6.05633 6.33413 5.97356 6.22369 6.00752C6.12778 6.037 6.04999 6.11458 6.01364 6.21699C5.97179 6.33491 6.02929 6.52634 6.1443 6.90921L7.62854 11.8504C7.64829 11.9162 7.65817 11.949 7.66207 11.9827C7.66553 12.0125 7.66549 12.0427 7.66196 12.0725C7.65798 12.1061 7.64803 12.139 7.62813 12.2047Z" stroke="white" stroke-width="1.5" stroke-linecap="round" stroke-linejoin="round"/>
</svg>
