<svg width="32" height="32" viewBox="0 0 32 32" fill="none" xmlns="http://www.w3.org/2000/svg">
<path d="M0 16C0 7.16344 7.16344 0 16 0C24.8366 0 32 7.16344 32 16C32 24.8366 24.8366 32 16 32C7.16344 32 0 24.8366 0 16Z" fill="#ffffff33"/>
<path d="M21.4235 11.1C22.4157 12.4792 23 14.1713 23 16C23 17.8287 22.4157 19.5208 21.4235 20.9M18.6217 13.2C19.1753 13.9937 19.5 14.9589 19.5 16C19.5 17.0411 19.1753 18.0063 18.6217 18.8M14.344 10.656L12.128 12.872C12.007 12.993 11.9464 13.0536 11.8758 13.0969C11.8132 13.1352 11.7449 13.1635 11.6735 13.1807C11.5929 13.2 11.5073 13.2 11.3361 13.2H10.12C9.72796 13.2 9.53194 13.2 9.38221 13.2763C9.25049 13.3434 9.14341 13.4505 9.0763 13.5822C9 13.7319 9 13.928 9 14.32V17.68C9 18.072 9 18.2681 9.0763 18.4178C9.14341 18.5495 9.25049 18.6566 9.38221 18.7237C9.53194 18.8 9.72796 18.8 10.12 18.8H11.3361C11.5073 18.8 11.5929 18.8 11.6735 18.8193C11.7449 18.8365 11.8132 18.8648 11.8758 18.9032C11.9464 18.9464 12.007 19.007 12.128 19.128L14.344 21.344C14.6439 21.6439 14.7938 21.7938 14.9225 21.8039C15.0342 21.8127 15.1434 21.7675 15.2161 21.6823C15.3 21.5842 15.3 21.3721 15.3 20.948V11.052C15.3 10.6279 15.3 10.4159 15.2161 10.3177C15.1434 10.2325 15.0342 10.1873 14.9225 10.1961C14.7938 10.2062 14.6439 10.3561 14.344 10.656Z" stroke="#ffffff" stroke-width="1.5" stroke-linecap="round" stroke-linejoin="round"/>
</svg>
