<svg width="24" height="24" viewBox="0 0 24 24" fill="none" xmlns="http://www.w3.org/2000/svg">
<path d="M16.4999 9V8.88C16.4999 7.87191 16.4999 7.36786 16.3037 6.98282C16.1311 6.64413 15.8558 6.36876 15.5171 6.19619C15.132 6 14.628 6 13.6199 6H9.7799C8.77181 6 8.26776 6 7.88272 6.19619C7.54403 6.36876 7.26866 6.64413 7.09609 6.98282C6.8999 7.36786 6.8999 7.87191 6.8999 8.88V15.12C6.8999 16.1281 6.8999 16.6321 7.09609 17.0172C7.26866 17.3559 7.54403 17.6312 7.88272 17.8038C8.26776 18 8.77181 18 9.7799 18H11.9999M11.9999 11.4H9.2999M11.3999 13.8H9.2999M14.0999 9H9.2999M15.2999 15.6V12.3C15.2999 11.8029 15.7028 11.4 16.1999 11.4C16.697 11.4 17.0999 11.8029 17.0999 12.3V15.6C17.0999 16.5941 16.294 17.4 15.2999 17.4C14.3058 17.4 13.4999 16.5941 13.4999 15.6V13.2" stroke="white" stroke-width="1.5" stroke-linecap="round" stroke-linejoin="round"/>
</svg>
